<svg xmlns="http://www.w3.org/2000/svg" xmlns:xlink="http://www.w3.org/1999/xlink" width="500" zoomAndPan="magnify" viewBox="0 0 375 374.999991" height="500" preserveAspectRatio="xMidYMid meet" version="1.0"><defs><g><g id="id1"/><g id="id2"/><g id="id3"/><g id="id4"/></g><clipPath id="id5"><path d="M 162.007812 96 L 264 96 L 264 182 L 162.007812 182 Z M 162.007812 96 " clip-rule="nonzero"/></clipPath><clipPath id="id6"><path d="M 214 154 L 256 154 L 256 191.746094 L 214 191.746094 Z M 214 154 " clip-rule="nonzero"/></clipPath></defs><g fill="rgb(21.958923%, 71.369934%, 100%)" fill-opacity="1"><g transform="translate(95.916085, 148.236473)"><g><path d="M 15.234375 -21.765625 C 15.234375 -17.390625 16.316406 -14.003906 18.484375 -11.609375 C 20.648438 -9.210938 23.75 -8.015625 27.78125 -8.015625 C 34.507812 -8.015625 39.800781 -11.28125 43.65625 -17.8125 L 52.28125 -13.375 C 46.957031 -3.945312 38.535156 0.765625 27.015625 0.765625 C 22.171875 0.765625 17.992188 -0.144531 14.484375 -1.96875 C 10.984375 -3.800781 8.328125 -6.40625 6.515625 -9.78125 C 4.703125 -13.164062 3.796875 -17.113281 3.796875 -21.625 C 3.796875 -28 5.125 -33.703125 7.78125 -38.734375 C 10.445312 -43.765625 14.164062 -47.617188 18.9375 -50.296875 C 23.71875 -52.984375 29.144531 -54.328125 35.21875 -54.328125 C 41.039062 -54.328125 45.820312 -53.078125 49.5625 -50.578125 C 53.300781 -48.085938 55.816406 -44.375 57.109375 -39.4375 L 46.6875 -36.734375 C 45.957031 -39.453125 44.550781 -41.59375 42.46875 -43.15625 C 40.394531 -44.726562 37.863281 -45.515625 34.875 -45.515625 C 28.75 -45.515625 23.941406 -43.382812 20.453125 -39.125 C 16.972656 -34.875 15.234375 -29.085938 15.234375 -21.765625 Z M 15.234375 -21.765625 "/></g></g></g><g fill="rgb(21.958923%, 71.369934%, 100%)" fill-opacity="1"><g transform="translate(145.339635, 148.236473)"><g><path d="M 35.265625 -54.328125 C 42.679688 -54.328125 48.53125 -52.359375 52.8125 -48.421875 C 57.09375 -44.484375 59.234375 -39.117188 59.234375 -32.328125 C 59.234375 -26.078125 57.894531 -20.375 55.21875 -15.21875 C 52.550781 -10.0625 48.820312 -6.109375 44.03125 -3.359375 C 39.25 -0.609375 33.78125 0.765625 27.625 0.765625 C 22.726562 0.765625 18.472656 -0.144531 14.859375 -1.96875 C 11.253906 -3.800781 8.507812 -6.421875 6.625 -9.828125 C 4.738281 -13.234375 3.796875 -17.210938 3.796875 -21.765625 C 3.796875 -27.722656 5.128906 -33.273438 7.796875 -38.421875 C 10.472656 -43.578125 14.179688 -47.515625 18.921875 -50.234375 C 23.660156 -52.960938 29.109375 -54.328125 35.265625 -54.328125 Z M 34.734375 -45.484375 C 30.628906 -45.484375 27.128906 -44.53125 24.234375 -42.625 C 21.347656 -40.726562 19.117188 -37.867188 17.546875 -34.046875 C 15.984375 -30.222656 15.203125 -26.234375 15.203125 -22.078125 C 15.203125 -17.410156 16.335938 -13.90625 18.609375 -11.5625 C 20.890625 -9.226562 24.070312 -8.0625 28.15625 -8.0625 C 32.226562 -8.0625 35.707031 -9.007812 38.59375 -10.90625 C 41.488281 -12.800781 43.726562 -15.625 45.3125 -19.375 C 46.894531 -23.125 47.6875 -27.140625 47.6875 -31.421875 C 47.6875 -35.878906 46.578125 -39.335938 44.359375 -41.796875 C 42.140625 -44.253906 38.929688 -45.484375 34.734375 -45.484375 Z M 34.734375 -45.484375 "/></g></g></g><g fill="rgb(21.958923%, 71.369934%, 100%)" fill-opacity="1"><g transform="translate(81.36615, 238.602095)"><g><path d="M 90.109375 0 L 68.21875 0 L 66.53125 -50.78125 L 66.28125 -64.53125 L 66.21875 -69.78125 C 63.71875 -63.113281 61.8125 -58.132812 60.5 -54.84375 C 59.1875 -51.550781 51.398438 -33.269531 37.140625 0 L 14.9375 0 L 9.375 -88.109375 L 26.890625 -88.109375 L 29.140625 -37.140625 C 29.429688 -30.140625 29.578125 -22.925781 29.578125 -15.5 L 33.140625 -24.515625 L 37.890625 -36.078125 L 60.09375 -88.109375 L 79.84375 -88.109375 L 82.484375 -15.5 C 83.609375 -18.550781 85.242188 -22.816406 87.390625 -28.296875 C 89.535156 -33.773438 97.671875 -53.710938 111.796875 -88.109375 L 130 -88.109375 Z M 90.109375 0 "/></g></g></g><g fill="rgb(21.958923%, 71.369934%, 100%)" fill-opacity="1"><g transform="translate(186.084002, 239.20926)"><g><path d="M 1.15625 0 L 9.984375 -45.546875 L 45.8125 -45.546875 L 44.390625 -38.171875 L 18.109375 -38.171875 L 15.875 -26.734375 L 40.1875 -26.734375 L 38.765625 -19.359375 L 14.453125 -19.359375 L 12.125 -7.375 L 39.734375 -7.375 L 38.28125 0 Z M 1.15625 0 "/></g></g></g><g fill="rgb(21.958923%, 71.369934%, 100%)" fill-opacity="1"><g transform="translate(224.469807, 239.20926)"><g><path d="M 10.015625 -45.546875 L 28.90625 -45.546875 C 34.3125 -45.546875 38.40625 -44.65625 41.1875 -42.875 C 43.96875 -41.101562 45.359375 -38.484375 45.359375 -35.015625 C 45.359375 -32.054688 44.46875 -29.632812 42.6875 -27.75 C 40.90625 -25.863281 38.300781 -24.566406 34.875 -23.859375 C 37.8125 -23.359375 40.101562 -22.21875 41.75 -20.4375 C 43.394531 -18.664062 44.21875 -16.5 44.21875 -13.9375 C 44.21875 -9.382812 42.53125 -5.921875 39.15625 -3.546875 C 35.789062 -1.179688 30.722656 0 23.953125 0 L 1.15625 0 Z M 15.96875 -27.1875 L 25.46875 -27.1875 C 29.238281 -27.1875 31.914062 -27.679688 33.5 -28.671875 C 35.082031 -29.660156 35.875 -31.285156 35.875 -33.546875 C 35.875 -35.273438 35.257812 -36.523438 34.03125 -37.296875 C 32.8125 -38.078125 30.753906 -38.46875 27.859375 -38.46875 L 18.140625 -38.46875 Z M 12.0625 -7.078125 L 22.65625 -7.078125 C 27.164062 -7.078125 30.289062 -7.617188 32.03125 -8.703125 C 33.78125 -9.796875 34.65625 -11.601562 34.65625 -14.125 C 34.65625 -16.0625 33.921875 -17.546875 32.453125 -18.578125 C 30.984375 -19.617188 28.59375 -20.140625 25.28125 -20.140625 L 14.609375 -20.140625 Z M 12.0625 -7.078125 "/></g></g></g><g fill="rgb(21.958923%, 71.369934%, 100%)" fill-opacity="1"><g transform="translate(93.527458, 267.703319)"><g><path d="M 12.421875 -8.296875 C 12.421875 -7.179688 12.300781 -6.117188 12.0625 -5.109375 C 11.832031 -4.109375 11.460938 -3.226562 10.953125 -2.46875 C 10.441406 -1.707031 9.78125 -1.101562 8.96875 -0.65625 C 8.15625 -0.21875 7.175781 0 6.03125 0 L 0.625 0 L 0.625 -16.625 L 6.03125 -16.625 C 7.15625 -16.625 8.125 -16.394531 8.9375 -15.9375 C 9.75 -15.488281 10.410156 -14.878906 10.921875 -14.109375 C 11.441406 -13.347656 11.820312 -12.46875 12.0625 -11.46875 C 12.300781 -10.46875 12.421875 -9.410156 12.421875 -8.296875 Z M 10.671875 -8.296875 C 10.671875 -10.472656 10.257812 -12.15625 9.4375 -13.34375 C 8.625 -14.539062 7.488281 -15.140625 6.03125 -15.140625 L 2.375 -15.140625 L 2.375 -1.484375 L 6.03125 -1.484375 C 7.488281 -1.484375 8.625 -2.070312 9.4375 -3.25 C 10.257812 -4.4375 10.671875 -6.117188 10.671875 -8.296875 Z M 10.671875 -8.296875 "/></g></g></g><g fill="rgb(21.958923%, 71.369934%, 100%)" fill-opacity="1"><g transform="translate(109.599957, 267.703319)"><g><path d="M 11.25 0 L 0.625 0 L 0.625 -16.625 L 11.25 -16.625 L 11.25 -15.140625 L 2.375 -15.140625 L 2.375 -9.1875 L 8.921875 -9.1875 L 8.921875 -7.703125 L 2.375 -7.703125 L 2.375 -1.484375 L 11.25 -1.484375 Z M 11.25 0 "/></g></g></g><g fill="rgb(21.958923%, 71.369934%, 100%)" fill-opacity="1"><g transform="translate(125.672455, 267.703319)"><g><path d="M 11.25 0 L 9.078125 0 L 2.375 -14.0625 L 2.375 0 L 0.625 0 L 0.625 -16.625 L 3.078125 -16.625 L 9.484375 -3.203125 L 9.484375 -16.625 L 11.25 -16.625 Z M 11.25 0 "/></g></g></g><g fill="rgb(21.958923%, 71.369934%, 100%)" fill-opacity="1"><g transform="translate(141.744954, 267.703319)"><g><path d="M 11.875 -11.015625 L 10.390625 -11.015625 L 10.390625 -15.140625 L 6.8125 -15.140625 L 6.8125 -1.484375 L 9.484375 -1.484375 L 9.484375 0 L 2.375 0 L 2.375 -1.484375 L 5.0625 -1.484375 L 5.0625 -15.140625 L 1.484375 -15.140625 L 1.484375 -11.015625 L 0 -11.015625 L 0 -16.625 L 11.875 -16.625 Z M 11.875 -11.015625 "/></g></g></g><g fill="rgb(21.958923%, 71.369934%, 100%)" fill-opacity="1"><g transform="translate(157.817452, 267.703319)"><g><path d="M 12.671875 0 L 10.796875 0 L 9.234375 -4.75 L 2.65625 -4.75 L 1.125 0 L -0.75 0 L 4.78125 -16.625 L 7.140625 -16.625 Z M 8.734375 -6.296875 L 5.953125 -14.875 L 3.15625 -6.296875 Z M 8.734375 -6.296875 "/></g></g></g><g fill="rgb(21.958923%, 71.369934%, 100%)" fill-opacity="1"><g transform="translate(173.889951, 267.703319)"><g><path d="M 9.484375 0 L 2.375 0 L 2.375 -1.484375 L 5.0625 -1.484375 L 5.0625 -15.140625 L 2.375 -15.140625 L 2.375 -16.625 L 9.484375 -16.625 L 9.484375 -15.140625 L 6.8125 -15.140625 L 6.8125 -1.484375 L 9.484375 -1.484375 Z M 9.484375 0 "/></g></g></g><g fill="rgb(21.958923%, 71.369934%, 100%)" fill-opacity="1"><g transform="translate(189.96245, 267.703319)"><g><path d="M 12.03125 0 L 9.8125 0 L 4.953125 -7.125 L 2.375 -7.125 L 2.375 0 L 0.625 0 L 0.625 -16.625 L 6.109375 -16.625 C 7.929688 -16.625 9.34375 -16.226562 10.34375 -15.4375 C 11.34375 -14.644531 11.84375 -13.457031 11.84375 -11.875 C 11.84375 -11.175781 11.71875 -10.546875 11.46875 -9.984375 C 11.226562 -9.429688 10.894531 -8.957031 10.46875 -8.5625 C 10.050781 -8.175781 9.546875 -7.863281 8.953125 -7.625 C 8.359375 -7.394531 7.710938 -7.253906 7.015625 -7.203125 Z M 10.046875 -11.875 C 10.046875 -13 9.691406 -13.820312 8.984375 -14.34375 C 8.285156 -14.875 7.328125 -15.140625 6.109375 -15.140625 L 2.375 -15.140625 L 2.375 -8.609375 L 6.109375 -8.609375 C 7.328125 -8.609375 8.285156 -8.863281 8.984375 -9.375 C 9.691406 -9.894531 10.046875 -10.726562 10.046875 -11.875 Z M 10.046875 -11.875 "/></g></g></g><g fill="rgb(21.958923%, 71.369934%, 100%)" fill-opacity="1"><g transform="translate(206.034948, 267.703319)"><g><path d="M 11.25 0 L 0.625 0 L 0.625 -16.625 L 11.25 -16.625 L 11.25 -15.140625 L 2.375 -15.140625 L 2.375 -9.1875 L 8.921875 -9.1875 L 8.921875 -7.703125 L 2.375 -7.703125 L 2.375 -1.484375 L 11.25 -1.484375 Z M 11.25 0 "/></g></g></g><g clip-path="url(#id5)"><path fill="rgb(21.958923%, 71.369934%, 100%)" d="M 161.96875 113.492188 C 180.0625 108.890625 198.238281 104.683594 216.4375 100.621094 C 220.984375 99.59375 225.539062 98.589844 230.09375 97.601562 L 233.511719 96.863281 L 235.226562 96.488281 L 236.503906 96.207031 L 236.722656 96.207031 L 237.148438 96.144531 C 237.449219 96.117188 237.746094 96.125 238.042969 96.171875 C 238.339844 96.21875 238.628906 96.296875 238.90625 96.414062 C 239.183594 96.527344 239.445312 96.675781 239.6875 96.855469 C 239.929688 97.035156 240.148438 97.238281 240.339844 97.472656 C 240.53125 97.703125 240.691406 97.957031 240.824219 98.226562 C 240.957031 98.5 241.050781 98.785156 241.113281 99.078125 C 241.175781 99.375 241.203125 99.671875 241.191406 99.972656 C 241.183594 100.277344 241.136719 100.570312 241.054688 100.863281 L 240.917969 101.289062 L 240.8125 101.519531 L 240.648438 101.925781 L 240.304688 102.726562 L 239.621094 104.339844 L 228.503906 130.074219 L 225.679688 136.488281 L 224.269531 139.695312 L 223.5625 141.296875 C 223.476562 141.496094 223.5625 141.414062 223.5625 141.414062 L 223.5625 141.351562 C 223.566406 141.3125 223.566406 141.273438 223.5625 141.234375 C 223.519531 141.175781 223.460938 141.140625 223.386719 141.132812 C 223.386719 141.132812 223.644531 141.132812 223.757812 141.132812 L 224.621094 141.015625 L 227.988281 140.570312 L 234.925781 139.664062 L 248.800781 137.863281 L 255.742188 136.996094 L 259.210938 136.589844 L 259.644531 136.589844 C 259.90625 136.566406 260.164062 136.566406 260.425781 136.589844 C 261.003906 136.632812 261.535156 136.816406 262.015625 137.144531 C 262.367188 137.371094 262.667969 137.652344 262.917969 137.992188 C 263.167969 138.328125 263.351562 138.699219 263.464844 139.105469 C 263.578125 139.511719 263.617188 139.921875 263.582031 140.339844 C 263.542969 140.761719 263.433594 141.160156 263.25 141.539062 C 263.03125 141.925781 262.761719 142.273438 262.441406 142.578125 L 261.234375 143.839844 L 258.816406 146.378906 L 253.972656 151.441406 L 244.242188 161.511719 C 237.71875 168.199219 231.195312 174.882812 224.507812 181.445312 C 230.488281 174.257812 236.609375 167.199219 242.714844 160.125 L 251.949219 149.589844 L 256.582031 144.382812 L 258.910156 141.765625 L 260.070312 140.457031 C 260.332031 140.164062 260.3125 140.175781 260.320312 140.144531 L 260.320312 140.070312 C 260.320312 140.019531 260.25 139.925781 260.195312 139.925781 C 260.144531 139.925781 260.195312 139.925781 260.195312 139.925781 L 259.675781 139.996094 L 256.21875 140.539062 L 249.300781 141.578125 L 235.453125 143.515625 L 228.527344 144.496094 L 225.066406 144.984375 L 224.195312 145.101562 L 223.707031 145.164062 C 223.4375 145.191406 223.167969 145.191406 222.898438 145.164062 C 222.628906 145.136719 222.363281 145.082031 222.105469 144.996094 C 221.851562 144.914062 221.601562 144.804688 221.367188 144.667969 C 221.132812 144.53125 220.917969 144.371094 220.714844 144.1875 C 220.515625 144.003906 220.335938 143.804688 220.179688 143.582031 C 220.019531 143.363281 219.886719 143.128906 219.777344 142.878906 C 219.667969 142.628906 219.589844 142.371094 219.535156 142.105469 C 219.480469 141.839844 219.457031 141.570312 219.457031 141.296875 C 219.457031 140.984375 219.5 140.675781 219.582031 140.371094 C 219.648438 140.128906 219.734375 139.894531 219.832031 139.664062 L 220.527344 138.050781 L 221.921875 134.84375 L 224.703125 128.40625 L 236.027344 102.769531 L 237.355469 99.800781 C 237.355469 99.914062 237.355469 99.914062 237.480469 99.914062 L 230.832031 101.207031 C 226.25 102.113281 221.671875 102.976562 217.089844 103.828125 C 198.757812 107.296875 180.402344 110.621094 161.96875 113.492188 Z M 161.96875 113.492188 " fill-opacity="1" fill-rule="nonzero"/></g><g clip-path="url(#id6)"><path fill="rgb(21.958923%, 71.369934%, 100%)" d="M 224.226562 154.015625 C 223.65625 160.324219 222.6875 166.511719 221.589844 172.757812 C 221.058594 175.882812 220.445312 178.933594 219.824219 182.007812 L 218.847656 186.621094 L 218.628906 187.660156 C 218.640625 187.605469 218.640625 187.550781 218.628906 187.492188 C 218.605469 187.445312 218.574219 187.410156 218.523438 187.390625 C 218.523438 187.390625 218.523438 187.390625 218.441406 187.390625 C 218.359375 187.390625 218.441406 187.390625 218.441406 187.390625 C 224.609375 186.347656 230.789062 185.308594 237.011719 184.578125 C 243.234375 183.847656 249.476562 183.152344 255.78125 182.921875 C 249.769531 184.859375 243.679688 186.402344 237.574219 187.785156 C 231.464844 189.171875 225.328125 190.398438 219.15625 191.492188 L 218.617188 191.492188 C 218.410156 191.507812 218.203125 191.507812 217.996094 191.492188 C 217.570312 191.445312 217.164062 191.332031 216.777344 191.148438 C 216.394531 190.96875 216.050781 190.730469 215.746094 190.4375 C 215.4375 190.144531 215.1875 189.808594 214.988281 189.433594 C 214.792969 189.058594 214.660156 188.660156 214.59375 188.242188 C 214.527344 187.820312 214.527344 187.402344 214.597656 186.984375 L 214.648438 186.703125 L 214.648438 186.558594 L 214.710938 186.277344 L 214.855469 185.703125 L 215.988281 181.132812 C 216.769531 178.101562 217.558594 175.058594 218.441406 172.039062 C 220.144531 165.949219 221.984375 159.929688 224.226562 154.015625 Z M 224.226562 154.015625 " fill-opacity="1" fill-rule="nonzero"/></g></svg>